<svg width="228" height="281" xmlns="http://www.w3.org/2000/svg" version="1.1">
 <title>mao</title>

 <g>
  <title>Layer 1</title>
  <g>
   <title>mao</title>
   <g fill-rule="evenodd" fill="none" id="svg_2">
    <g transform="translate(2 2)" id="svg_3">
     <path fill="#000000" stroke-width="4" stroke="#000000" d="m207.63403,50.5c-85.33333,-40 -133.33333,-56 -144,-48c-16,12 12,48 12,64c0,16 -8,16 -16,40c-8,24 -4,24 -8,40c-4,16 -52,20 -52,44c0,24 122.87565,40.23824 152,52c19.41623,7.84117 38.0829,18.50784 56,32l0,-224z"/>
     <circle opacity="0" r="18" cy="82.5" cx="137.63403" fill="#FFFFFF" stroke-width="4" stroke="#FFFFFF" id="svg_6"/>
     <circle opacity="0" r="18" cy="172.5" cx="109.63403" fill="#FFFFFF" stroke-width="4" stroke="#FFFFFF" id="eye"/>
     <line transform="rotate(105 -0.365967 0.5) translate(138 82) translate(-138 -82)" stroke-linejoin="round" stroke-linecap="round" fill="#FFFFFF" stroke-width="4" stroke="#FFFFFF" id="svg_5" y2="82.5" x2="155.63403" y1="82.5" x1="119.63403"/>
     <line transform="rotate(105 -0.365967 0.5) translate(110 172) translate(-110 -172)" stroke-linejoin="round" stroke-linecap="round" fill="#FFFFFF" stroke-width="4" stroke="#FFFFFF" id="-y-" y2="172.5" x2="127.63403" y1="172.5" x1="91.63403"/>
     <path transform="rotate(90 -0.365967 0.5) translate(216.42 163.16) translate(-216.42 -163.16)" fill-rule="nonzero" fill="#000000" id="svg_4" d="m123.71403,171.08c1.7,0 3.04,-0.36 4.04,-1.06c1,-0.72 1.5,-1.72 1.5,-2.96c0,-1.3 -0.6,-2.3 -1.78,-3.02c-0.6,-0.36 -1.84,-0.82 -3.72,-1.38c-1.38,-0.4 -2.26,-0.7 -2.62,-0.9c-0.82,-0.44 -1.22,-1.02 -1.22,-1.74c0,-0.82 0.34,-1.42 1.02,-1.82c0.6,-0.36 1.42,-0.52 2.48,-0.52c1.16,0 2.06,0.24 2.7,0.76c0.62,0.5 1.02,1.26 1.2,2.3l1.62,0c-0.14,-1.5 -0.68,-2.64 -1.64,-3.4c-0.92,-0.74 -2.2,-1.1 -3.8,-1.1c-1.48,0 -2.7,0.32 -3.64,0.96c-1.06,0.68 -1.58,1.66 -1.58,2.9c0,1.2 0.54,2.12 1.64,2.76c0.46,0.24 1.56,0.64 3.28,1.16c1.6,0.46 2.62,0.8 3.02,1.04c0.94,0.5 1.42,1.2 1.42,2.1c0,0.76 -0.36,1.36 -1.08,1.8c-0.72,0.44 -1.68,0.66 -2.84,0.66c-1.28,0 -2.24,-0.28 -2.9,-0.8c-0.72,-0.58 -1.16,-1.5 -1.3,-2.74l-1.62,0c0.12,1.76 0.74,3.06 1.86,3.92c0.96,0.72 2.28,1.08 3.96,1.08zm19.36,-0.28l0,-14.28l-1.62,0l0,14.28l1.62,0zm14.74,0l0,-14.28l-1.62,0l0,14.28l1.62,0zm18.56,0l0,-12.86l5.04,0l0,-1.42l-11.7,0l0,1.42l5.04,0l0,12.86l1.62,0zm17.14,0l1.52,-4l6.56,0l1.52,4l1.78,0l-5.62,-14.28l-1.9,0l-5.62,14.28l1.76,0zm7.56,-5.38l-5.52,0l2.74,-7.14l0.08,0l2.7,7.14zm16.9,5.38l0,-5l2.22,-2.1l6.3,7.1l2.2,0l-7.36,-8.16l6.46,-6.12l-2.14,0l-7.68,7.42l0,-7.42l-1.64,0l0,14.28l1.64,0zm32.62,0l0,-1.42l-8.82,0l0,-5.24l8,0l0,-1.42l-8,0l0,-4.78l8.48,0l0,-1.42l-10.12,0l0,14.28l10.46,0zm13.48,0.08c0.32,0 0.62,-0.12 0.86,-0.36c0.24,-0.24 0.36,-0.52 0.36,-0.86c0,-0.36 -0.12,-0.64 -0.36,-0.88c-0.24,-0.24 -0.54,-0.36 -0.86,-0.36c-0.36,0 -0.64,0.12 -0.86,0.36c-0.24,0.24 -0.36,0.52 -0.36,0.88c0,0.34 0.12,0.62 0.36,0.86c0.22,0.24 0.5,0.36 0.86,0.36zm20.18,0.2c1.52,0 2.84,-0.44 3.94,-1.3c1.18,-0.92 1.92,-2.22 2.24,-3.88l-1.58,0c-0.28,1.24 -0.86,2.18 -1.7,2.82c-0.8,0.6 -1.76,0.9 -2.9,0.9c-1.68,0 -2.94,-0.56 -3.82,-1.66c-0.84,-1.04 -1.24,-2.46 -1.24,-4.24c0,-1.78 0.42,-3.2 1.26,-4.28c0.9,-1.16 2.18,-1.74 3.84,-1.74c1.12,0 2.06,0.26 2.84,0.8c0.8,0.56 1.32,1.36 1.52,2.4l1.58,0c-0.2,-1.42 -0.84,-2.56 -1.92,-3.4c-1.08,-0.84 -2.42,-1.26 -4,-1.26c-2.2,0 -3.92,0.74 -5.12,2.26c-1.1,1.36 -1.64,3.1 -1.64,5.22c0,2.12 0.52,3.84 1.6,5.16c1.18,1.46 2.88,2.2 5.1,2.2zm20.1,-0.28l0,-11.74l0.06,0l8.12,11.74l1.68,0l0,-14.28l-1.64,0l0,11.62l-0.06,0l-8.08,-11.62l-1.72,0l0,14.28l1.64,0z"/>
    </g>
   </g>
  </g>
  <ellipse stroke="#000" ry="20.5" rx="20.5" id="svg_7" cy="89.5" cx="140" fill="#fff"/>
  <ellipse stroke="#000" ry="20.5" rx="20.5" id="svg_10" cy="171.5" cx="116" fill="#fff"/>
 </g>
</svg>